<?xml version="1.0" encoding="utf-8"?>
<!-- Generator: Adobe Illustrator 25.0.0, SVG Export Plug-In . SVG Version: 6.00 Build 0)  -->
<svg version="1.1" xmlns="http://www.w3.org/2000/svg" xmlns:xlink="http://www.w3.org/1999/xlink" x="0px" y="0px"
	 viewBox="0 0 64 64" style="enable-background:new 0 0 64 64;" xml:space="preserve">
<style type="text/css">
	.st0{fill:#FFFFFF;}
</style>
<g id="_x26AA_1">
</g>
<g id="juxingbaidi">
	<g>
		<path class="st0" d="M64,54c0,5.5-4.5,10-10,10H10C4.5,64,0,59.5,0,54V10C0,4.5,4.5,0,10,0h44c5.5,0,10,4.5,10,10V54z"/>
	</g>
</g>
<g id="_x26AA_3">
</g>
<g id="_x26AA_2">
	<g>
		<g>
			<path class="st0" d="M41.68,40.91c-0.49,10.41-9.1,18.69-19.61,18.69c-10.85,0-19.65-8.79-19.65-19.64
				c0-7.49,4.19-13.99,10.35-17.3c0.03-0.7,0.1-1.38,0.2-2.05C5.69,24.03,0.66,31.41,0.66,39.96c0,11.82,9.58,21.4,21.4,21.4
				c11.81,0,21.39-9.58,21.39-21.4v-0.14C42.88,40.21,42.28,40.58,41.68,40.91z M41.3,35.99c0.53-0.37,1.04-0.78,1.51-1.22
				c-2.32-9.3-10.73-16.2-20.75-16.2c-1.46,0-2.89,0.15-4.27,0.42c-0.2,0.62-0.35,1.25-0.46,1.9c1.52-0.38,3.1-0.58,4.73-0.58
				C31.54,20.32,39.46,27.04,41.3,35.99z"/>
			<path class="st0" d="M35.23,43.04c-1.39,5.99-6.77,10.45-13.17,10.45c-7.48,0-13.54-6.06-13.54-13.53
				c0-4.28,1.99-8.09,5.08-10.56c-0.19-0.6-0.34-1.21-0.47-1.84c-3.85,2.77-6.36,7.29-6.36,12.4c0,8.44,6.85,15.28,15.29,15.28
				c7.51,0,13.76-5.42,15.03-12.56C36.49,42.83,35.86,42.96,35.23,43.04z M22.06,24.68c-1.69,0-3.33,0.27-4.86,0.79
				c0.07,0.59,0.18,1.17,0.31,1.73c1.42-0.51,2.95-0.78,4.54-0.78c6.99,0,12.75,5.31,13.46,12.12c0.58-0.12,1.15-0.26,1.69-0.46
				C36.3,30.53,29.86,24.68,22.06,24.68z"/>
			<path d="M17.33,20.89c-1.62,0.4-3.14,0.99-4.57,1.76c-0.02,0.31-0.03,0.63-0.03,0.95c0,1.36,0.14,2.68,0.4,3.97
				c1.23-0.89,2.6-1.61,4.07-2.1c-0.08-0.62-0.12-1.23-0.12-1.87C17.09,22.69,17.16,21.77,17.33,20.89z M41.3,35.99
				c-1.23,0.9-2.6,1.61-4.08,2.1c0.08,0.62,0.12,1.23,0.12,1.87c0,0.92-0.08,1.83-0.24,2.71c1.62-0.39,3.15-0.99,4.58-1.76
				c0.02-0.31,0.03-0.63,0.03-0.95C41.7,38.6,41.57,37.28,41.3,35.99z M22.06,55.24c-8.44,0-15.29-6.84-15.29-15.28
				c0-4.41,1.86-8.37,4.85-11.15c-0.41-1.63-0.64-3.32-0.65-5.06c-5.17,3.54-8.57,9.48-8.57,16.22c0,10.85,8.8,19.64,19.65,19.64
				c9.81,0,17.96-7.21,19.41-16.63c-1.53,0.72-3.15,1.26-4.85,1.61C34.66,50.76,28.89,55.24,22.06,55.24z M22.06,20.32
				c-0.97,0-1.92,0.07-2.86,0.21c-0.24,0.99-0.36,2.03-0.36,3.08c0,0.48,0.03,0.95,0.07,1.41c1.02-0.23,2.08-0.33,3.15-0.33
				c7.19,0,13.23,4.97,14.85,11.67c1.44-0.51,2.76-1.25,3.93-2.19C38.36,26.14,30.88,20.32,22.06,20.32z"/>
			<path class="st0" d="M41.94,19c-11.81,0-21.39,9.58-21.39,21.39c0,11.81,9.58,21.39,21.39,21.39s21.39-9.58,21.39-21.39
				C63.34,28.57,53.76,19,41.94,19z M41.94,60.04c-10.85,0-19.65-8.8-19.65-19.65c0-10.85,8.8-19.65,19.65-19.65
				s19.65,8.8,19.65,19.65C61.59,51.24,52.79,60.04,41.94,60.04z"/>
			<path class="st0" d="M41.94,25.11c-8.44,0-15.28,6.84-15.28,15.28s6.84,15.28,15.28,15.28s15.28-6.84,15.28-15.28
				S50.38,25.11,41.94,25.11z M41.94,53.92c-7.47,0-13.53-6.06-13.53-13.53s6.06-13.53,13.53-13.53s13.53,6.06,13.53,13.53
				S49.42,53.92,41.94,53.92z"/>
			<path d="M41.94,20.74c-10.85,0-19.65,8.8-19.65,19.65c0,10.85,8.8,19.65,19.65,19.65s19.65-8.8,19.65-19.65
				C61.59,29.54,52.79,20.74,41.94,20.74z M41.94,55.67c-8.44,0-15.28-6.84-15.28-15.28s6.84-15.28,15.28-15.28
				s15.28,6.84,15.28,15.28S50.38,55.67,41.94,55.67z"/>
			<path class="st0" d="M32.37,2.22c-11.82,0-21.4,9.58-21.4,21.39v0.14c0.57-0.39,1.17-0.75,1.78-1.09
				c0.49-10.41,9.09-18.69,19.61-18.69c10.85,0,19.64,8.79,19.64,19.64c0,7.48-4.18,13.98-10.34,17.3c-0.03,0.71-0.1,1.39-0.21,2.07
				c7.27-3.42,12.29-10.8,12.29-19.37C53.76,11.8,44.18,2.22,32.37,2.22z M13.13,27.57c-0.53,0.37-1.04,0.78-1.51,1.23
				C13.93,38.11,22.34,45,32.37,45c1.46,0,2.88-0.15,4.25-0.42c0.2-0.62,0.36-1.26,0.47-1.91c-1.51,0.38-3.09,0.58-4.72,0.58
				C22.88,43.25,14.96,36.52,13.13,27.57z"/>
			<path d="M41.68,40.91c-0.03,0.71-0.1,1.39-0.21,2.07c-1.53,0.72-3.15,1.26-4.85,1.61c0.2-0.62,0.36-1.26,0.47-1.91
				C38.71,42.28,40.25,41.68,41.68,40.91z"/>
			<path d="M13.13,27.57c-0.53,0.37-1.04,0.78-1.51,1.23c-0.41-1.63-0.64-3.32-0.65-5.06c0.57-0.39,1.17-0.75,1.78-1.09
				c-0.02,0.31-0.03,0.63-0.03,0.95C12.73,24.97,12.87,26.29,13.13,27.57z"/>
			<path class="st0" d="M32.37,8.33c-7.52,0-13.77,5.42-15.04,12.56c0.62-0.16,1.23-0.27,1.87-0.37
				c1.39-5.99,6.77-10.45,13.17-10.45c7.47,0,13.53,6.06,13.53,13.53c0,4.27-1.98,8.08-5.07,10.56c0.19,0.6,0.34,1.2,0.47,1.83
				c3.85-2.76,6.35-7.29,6.35-12.39C47.65,15.16,40.81,8.33,32.37,8.33z M32.37,37.14c-6.99,0-12.75-5.31-13.46-12.12
				c-0.58,0.12-1.15,0.27-1.7,0.46c0.92,7.56,7.36,13.41,15.17,13.41c1.69,0,3.33-0.27,4.85-0.79c-0.07-0.59-0.18-1.17-0.31-1.73
				C35.5,36.86,33.97,37.14,32.37,37.14z"/>
			<path d="M41.3,35.99c-1.23,0.9-2.6,1.61-4.08,2.1c-0.07-0.59-0.18-1.17-0.31-1.73c1.44-0.51,2.76-1.25,3.93-2.19
				C41.02,34.76,41.18,35.37,41.3,35.99z"/>
			<path d="M18.84,23.61c0,0.48,0.03,0.95,0.07,1.41c-0.58,0.12-1.15,0.27-1.7,0.46c-0.08-0.62-0.12-1.23-0.12-1.87
				c0-0.92,0.08-1.83,0.24-2.71c0.62-0.16,1.23-0.27,1.87-0.37C18.97,21.51,18.84,22.55,18.84,23.61z"/>
			<path d="M35.53,38.55c-1.02,0.23-2.08,0.33-3.15,0.33c-7.2,0-13.24-4.97-14.86-11.67c-1.43,0.51-2.75,1.25-3.92,2.19
				c2.48,8.02,9.94,13.85,18.77,13.85c0.97,0,1.92-0.07,2.86-0.21c0.24-0.99,0.36-2.03,0.36-3.08
				C35.59,39.48,35.56,39.01,35.53,38.55z M17.33,20.89c-1.61,0.39-3.14,0.99-4.57,1.76c-0.02,0.31-0.03,0.63-0.03,0.95
				c0,1.36,0.14,2.68,0.4,3.96c1.23-0.89,2.6-1.6,4.07-2.09c-0.08-0.62-0.12-1.23-0.12-1.87C17.09,22.69,17.16,21.77,17.33,20.89z
				 M32.37,3.96c-9.83,0-17.97,7.22-19.42,16.65c1.52-0.72,3.14-1.26,4.84-1.62c1.96-6.19,7.75-10.66,14.58-10.66
				c8.44,0,15.28,6.84,15.28,15.28c0,4.41-1.86,8.37-4.84,11.16c0.4,1.62,0.63,3.31,0.64,5.05c5.17-3.54,8.57-9.48,8.57-16.22
				C52.02,12.76,43.22,3.96,32.37,3.96z M37.22,38.09c0.08,0.62,0.12,1.23,0.12,1.87c0,0.92-0.08,1.83-0.24,2.71
				c1.62-0.4,3.15-1,4.58-1.76c0.02-0.31,0.03-0.63,0.03-0.95c0-1.36-0.14-2.68-0.4-3.96C40.07,36.89,38.69,37.6,37.22,38.09z"/>
			<path class="st0" d="M41.68,40.91c0.02-0.31,0.03-0.63,0.03-0.95c0-1.36-0.14-2.68-0.4-3.96v-0.01c0.53-0.37,1.04-0.78,1.51-1.22
				c0.4,1.62,0.63,3.31,0.64,5.05C42.88,40.21,42.28,40.58,41.68,40.91z"/>
			<path class="st0" d="M17.79,18.99c-0.2,0.62-0.35,1.25-0.46,1.9c-1.61,0.39-3.14,0.99-4.57,1.76c0.03-0.7,0.1-1.38,0.2-2.05
				C14.47,19.88,16.1,19.35,17.79,18.99z"/>
			<path class="st0" d="M37.34,39.96c0,0.92-0.08,1.83-0.24,2.71c-0.61,0.16-1.23,0.28-1.86,0.37c0.24-0.99,0.36-2.03,0.36-3.08
				c0-0.48-0.03-0.95-0.07-1.41c0.58-0.12,1.15-0.26,1.69-0.46C37.3,38.71,37.34,39.32,37.34,39.96z"/>
			<path class="st0" d="M17.52,27.21c-1.43,0.51-2.75,1.25-3.92,2.19c-0.19-0.6-0.34-1.21-0.47-1.84c1.23-0.89,2.6-1.6,4.07-2.09
				C17.27,26.06,17.38,26.64,17.52,27.21z"/>
		</g>
	</g>
</g>
</svg>
